<svg width="40" height="40" viewBox="0 0 40 40" fill="none" xmlns="http://www.w3.org/2000/svg">
<g id="skill-icons:bootstrap" clip-path="url(#clip0_337_484)">
<g id="Group">
<path id="Vector" d="M30.625 0H9.375C4.19733 0 0 4.19733 0 9.375V30.625C0 35.8027 4.19733 40 9.375 40H30.625C35.8027 40 40 35.8027 40 30.625V9.375C40 4.19733 35.8027 0 30.625 0Z" fill="url(#paint0_linear_337_484)"/>
<g id="Group_2" filter="url(#filter0_d_337_484)">
<path id="Vector_2" d="M20.6203 30.6495C25.2572 30.6495 28.0514 28.3791 28.0514 24.6344C28.0514 21.8036 26.0578 19.7544 23.0973 19.4298V19.312C25.2723 18.9581 26.9791 16.9383 26.9791 14.6827C26.9791 11.4686 24.4417 9.375 20.575 9.375H11.875V30.6495H20.6203ZM15.2583 12.073H19.7594C22.2063 12.073 23.5958 13.1641 23.5958 15.1397C23.5958 17.248 21.9797 18.4273 19.0495 18.4273H15.2583V12.073ZM15.2583 27.9516V20.9486H19.7291C22.9313 20.9486 24.5927 22.128 24.5927 24.428C24.5927 26.7278 22.9766 27.9516 19.9255 27.9516H15.2583Z" fill="url(#paint1_linear_337_484)"/>
<path id="Vector_3" d="M20.6203 30.6495C25.2572 30.6495 28.0514 28.3791 28.0514 24.6344C28.0514 21.8036 26.0578 19.7544 23.0973 19.4298V19.312C25.2723 18.9581 26.9791 16.9383 26.9791 14.6827C26.9791 11.4686 24.4417 9.375 20.575 9.375H11.875V30.6495H20.6203ZM15.2583 12.073H19.7594C22.2063 12.073 23.5958 13.1641 23.5958 15.1397C23.5958 17.248 21.9797 18.4273 19.0495 18.4273H15.2583V12.073ZM15.2583 27.9516V20.9486H19.7291C22.9313 20.9486 24.5927 22.128 24.5927 24.428C24.5927 26.7278 22.9766 27.9516 19.9255 27.9516H15.2583Z" stroke="white" stroke-width="2"/>
</g>
</g>
</g>
<defs>
<filter id="filter0_d_337_484" x="-5.125" y="-3.625" width="50.1764" height="55.2744" filterUnits="userSpaceOnUse" color-interpolation-filters="sRGB">
<feFlood flood-opacity="0" result="BackgroundImageFix"/>
<feColorMatrix in="SourceAlpha" type="matrix" values="0 0 0 0 0 0 0 0 0 0 0 0 0 0 0 0 0 0 127 0" result="hardAlpha"/>
<feOffset dy="4"/>
<feGaussianBlur stdDeviation="8"/>
<feColorMatrix type="matrix" values="0 0 0 0 0 0 0 0 0 0 0 0 0 0 0 0 0 0 0.15 0"/>
<feBlend mode="normal" in2="BackgroundImageFix" result="effect1_dropShadow_337_484"/>
<feBlend mode="normal" in="SourceGraphic" in2="effect1_dropShadow_337_484" result="shape"/>
</filter>
<linearGradient id="paint0_linear_337_484" x1="0" y1="0" x2="40" y2="40" gradientUnits="userSpaceOnUse">
<stop stop-color="#9013FE"/>
<stop offset="1" stop-color="#6B11F4"/>
</linearGradient>
<linearGradient id="paint1_linear_337_484" x1="13.4052" y1="10.7753" x2="23.2095" y2="27.3569" gradientUnits="userSpaceOnUse">
<stop stop-color="white"/>
<stop offset="1" stop-color="#F1E5FC"/>
</linearGradient>
<clipPath id="clip0_337_484">
<rect width="40" height="40" fill="white"/>
</clipPath>
</defs>
</svg>
