<svg width="40" height="41" viewBox="0 0 40 41" fill="none" xmlns="http://www.w3.org/2000/svg">
<g id="devicon:css3" clip-path="url(#clip0_337_474)">
<path id="Vector" d="M5.87942 36.1635L2.73755 0.922607H37.2626L34.1176 36.1582L19.9791 40.0779L5.87942 36.1635Z" fill="#1572B6"/>
<path id="Vector_2" d="M20.0004 37.0818L31.4251 33.9143L34.1129 3.80371H20.0004V37.0818Z" fill="#33A9DC"/>
<path id="Vector_3" d="M20.0004 16.5716H25.7197L26.1147 12.1457H20.0004V7.82349H30.8385L30.7347 8.98317L29.6722 20.8938H20.0004V16.5716Z" fill="white"/>
<path id="Vector_4" d="M20.0259 27.7967L20.0069 27.8023L15.1934 26.5026L14.8856 23.0554H10.5475L11.1528 29.842L20.0062 32.2992L20.0259 32.2935V27.7967Z" fill="#EBEBEB"/>
<path id="Vector_5" d="M25.3522 20.7109L24.8316 26.4991L20.011 27.8003V32.2972L28.8716 29.8416L28.9366 29.1112L29.6885 20.7109H25.3522Z" fill="white"/>
<path id="Vector_6" d="M20.015 7.82349V12.1457H9.57499L9.48842 11.1744L9.29155 8.98317L9.18811 7.82349H20.015ZM20.0003 16.5722V20.8944H15.2475L15.1609 19.9232L14.9637 17.7319L14.8606 16.5722H20.0003Z" fill="#EBEBEB"/>
</g>
<defs>
<clipPath id="clip0_337_474">
<rect width="40" height="40" fill="white" transform="translate(0 0.5)"/>
</clipPath>
</defs>
</svg>
