<svg width="40" height="41" viewBox="0 0 40 41" fill="none" xmlns="http://www.w3.org/2000/svg">
<g id="vscode-icons:file-type-html">
<path id="Vector" d="M7.37748 34.5013L4.56873 3H35.4312L32.6187 34.4963L19.9812 38L7.37748 34.5013Z" fill="#E44F26"/>
<path id="Vector_2" d="M20 35.3224L30.2125 32.4912L32.615 5.57617H20V35.3224Z" fill="#F1662A"/>
<path id="Vector_3" d="M20 17.2587H14.8875L14.535 13.3025H20V9.43872H10.3125L10.405 10.4762L11.3538 21.1225H20V17.2587ZM20 27.2925L19.9825 27.2975L15.68 26.1362L15.405 23.055H11.5262L12.0675 29.12L19.9825 31.3175L20 31.3125V27.2925Z" fill="#EBEBEB"/>
<path id="Vector_4" d="M19.9862 17.2587V21.1225H24.7437L24.2962 26.1337L19.9862 27.2962V31.3162L27.9075 29.12L27.965 28.4675L28.8725 18.2962L28.9675 17.2587H19.9862ZM19.9862 9.43872V13.3025H29.3187L29.3962 12.435L29.5725 10.4762L29.665 9.43872H19.9862Z" fill="white"/>
</g>
</svg>
