<svg width="40" height="41" viewBox="0 0 40 41" fill="none" xmlns="http://www.w3.org/2000/svg">
<g id="logos:javascript" clip-path="url(#clip0_337_481)">
<path id="Vector" d="M0 0.5H40V40.5H0V0.5Z" fill="#F7DF1E"/>
<path id="Vector_2" d="M10.5175 33.9269L13.5784 32.0744C14.1691 33.1214 14.7062 34.0074 15.9948 34.0074C17.23 34.0074 18.0089 33.5242 18.0089 31.6449V18.8639H21.7678V31.698C21.7678 35.5913 19.4856 37.3635 16.1559 37.3635C13.1489 37.3635 11.4034 35.8061 10.5173 33.9266M23.8095 33.5241L26.8701 31.7521C27.6759 33.0678 28.7231 34.0344 30.5756 34.0344C32.1333 34.0344 33.1264 33.2556 33.1264 32.1816C33.1264 30.8928 32.1061 30.4363 30.3876 29.6847L29.4481 29.2816C26.7361 28.1274 24.9372 26.6774 24.9372 23.6164C24.9372 20.7971 27.0851 18.6489 30.4416 18.6489C32.8312 18.6489 34.5497 19.4814 35.7847 21.6563L32.8578 23.536C32.2133 22.3814 31.5155 21.925 30.4414 21.925C29.3405 21.925 28.6423 22.6231 28.6423 23.536C28.6423 24.6636 29.3405 25.1203 30.9514 25.8185L31.8911 26.2211C35.0864 27.5906 36.8853 28.9867 36.8853 32.128C36.8853 35.5114 34.2272 37.3639 30.6561 37.3639C27.1656 37.3639 24.9101 35.6992 23.8094 33.5242" fill="black"/>
</g>
<defs>
<clipPath id="clip0_337_481">
<rect width="40" height="40" fill="white" transform="translate(0 0.5)"/>
</clipPath>
</defs>
</svg>
