<svg width="40" height="41" viewBox="0 0 40 41" fill="none" xmlns="http://www.w3.org/2000/svg">
<g id="devicon:laravel" clip-path="url(#clip0_337_495)">
<path id="Vector" d="M8.13344 0.542749C8.07 0.567124 6.27688 1.58869 4.15031 2.81087C1.57344 4.29275 0.250314 5.07275 0.179376 5.14587C0.123126 5.20931 0.0596889 5.31931 0.0403139 5.389C-0.0134361 5.56837 -0.0171861 31.8587 0.0365639 32.0477C0.0562514 32.1209 0.119689 32.2284 0.177189 32.2884C0.316251 32.4346 15.6994 41.2799 15.8863 41.3228C15.9728 41.3434 16.0706 41.3396 16.1669 41.3131C16.3769 41.2606 31.72 32.4349 31.8566 32.2906C31.9128 32.2284 31.9763 32.1209 31.9972 32.0477C32.0241 31.9612 32.0338 30.5865 32.0338 27.6924V23.4624L35.7741 21.314C39.3006 19.2865 39.5166 19.1596 39.6069 19.0202L39.6997 18.8702V14.3146C39.6997 9.35494 39.7094 9.63431 39.5128 9.45525C39.4603 9.40837 37.6634 8.35994 35.5163 7.12337L31.6163 4.87962H31.1828L27.3672 7.07087C25.2663 8.27962 23.4803 9.31212 23.3934 9.36837C23.3069 9.42556 23.2031 9.53181 23.1603 9.609L23.0834 9.74181L23.0662 14.034L23.0506 18.3271L19.9 20.1421C18.1666 21.1384 16.7238 21.9637 16.6931 21.9709C16.6369 21.9865 16.6334 21.5777 16.6334 13.6884V5.38525L16.5503 5.24244C16.4466 5.069 16.9128 5.34619 12.2303 2.65462C8.30313 0.396186 8.39688 0.443686 8.13344 0.542749ZM11.7431 3.83025C13.3863 4.77244 14.7303 5.55244 14.7303 5.56212C14.7303 5.57181 13.2897 6.40462 11.5297 7.4165L8.32656 9.25494L5.12969 7.4165C3.37281 6.40462 1.93375 5.57181 1.93375 5.56212C1.93375 5.55244 3.37031 4.71994 5.12688 3.71025L8.31656 1.87587L8.53625 1.99525C8.65969 2.06244 10.1038 2.88806 11.7431 3.83025ZM34.6031 8.05931C36.3331 9.05556 37.7638 9.87806 37.7772 9.89181C37.8138 9.92462 31.4697 13.5709 31.3831 13.5671C31.2963 13.5649 25.0306 9.9515 25.0331 9.90775C25.0366 9.85775 31.3403 6.23087 31.4038 6.24056C31.4331 6.24806 32.8734 7.06712 34.6031 8.05931ZM4.63375 8.58556L7.68313 10.3409L7.70031 19.0324L7.71594 27.7249L7.79063 27.8421C7.82969 27.9046 7.90313 27.9887 7.95625 28.0277C8.00656 28.0643 9.70313 29.0309 11.7259 30.1724L15.4003 32.2474V35.9243C15.4003 37.9421 15.3869 39.5974 15.37 39.5974C15.3566 39.5974 12.1803 37.7799 8.31313 35.5546L1.28281 31.5118L1.27344 19.0827L1.26719 6.65712L1.42344 6.74369C1.51375 6.7915 2.95656 7.61994 4.63375 8.58556ZM15.4003 14.7037V22.7127L15.2772 22.7934C15.11 22.8996 9.00375 26.409 8.98344 26.409C8.97344 26.409 8.96594 22.7934 8.96594 18.3731L8.96969 10.3409L12.1594 8.5065C13.9134 7.49681 15.36 6.67775 15.3772 6.68369C15.3897 6.69087 15.4003 10.3006 15.4003 14.7037ZM27.5697 12.8618L30.7666 14.6999V18.3437C30.7666 21.8009 30.7628 21.9865 30.7103 21.9668C30.6763 21.9534 29.2297 21.1246 27.4938 20.1249L24.3334 18.3096V14.6674C24.3334 12.6618 24.3431 11.0237 24.3531 11.0237C24.3666 11.0237 25.8131 11.8496 27.5697 12.8618ZM38.4666 14.644C38.4666 16.6387 38.4534 18.284 38.44 18.2999C38.4169 18.3365 32.0934 21.9802 32.0531 21.9802C32.0438 21.9802 32.0338 20.3421 32.0338 18.3365V14.6943L35.2234 12.8584C36.9797 11.8499 38.4266 11.0237 38.44 11.0237C38.4572 11.0237 38.4669 12.6518 38.4669 14.6443L38.4666 14.644ZM26.9469 21.2715C29.6363 22.8193 30.1 23.0965 30.0538 23.1331C30.0231 23.1524 29.0038 23.7384 27.7906 24.4318C26.5772 25.124 23.4338 26.9162 20.8031 28.4149L16.0228 31.1421L15.8703 31.059C14.9572 30.5596 9.65938 27.5459 9.65938 27.5227C9.65688 27.4727 23.6769 19.4159 23.7328 19.4368C23.7597 19.4462 25.2063 20.2721 26.9469 21.2715ZM30.7606 27.8621L30.7494 31.5121L23.7231 35.5549C19.8572 37.7799 16.6797 39.5977 16.6638 39.5977C16.6469 39.5977 16.6334 38.1121 16.6334 35.9246V32.2481L23.6769 28.2318C27.5463 26.0237 30.7263 24.2159 30.7434 24.2121C30.7569 24.2121 30.7628 25.854 30.7606 27.8621Z" fill="#F05340"/>
</g>
<defs>
<clipPath id="clip0_337_495">
<rect width="40" height="40" fill="white" transform="translate(0 0.5)"/>
</clipPath>
</defs>
</svg>
