<svg width="40" height="29" viewBox="0 0 40 29" fill="none" xmlns="http://www.w3.org/2000/svg">
<g id="logos:mysql" clip-path="url(#clip0_337_497)">
<path id="Vector" d="M11.8992 18.8591L13.1148 22.8034C13.388 23.699 13.5019 24.3241 13.4562 24.6804C14.1211 22.8998 14.5856 20.9593 14.8499 18.8591H16.3116C15.6831 22.2783 14.8541 24.763 13.8252 26.313C13.0234 27.5075 12.1452 28.1047 11.1887 28.1047C10.9337 28.1047 10.6194 28.0276 10.2463 27.8747V27.0504C10.4286 27.0772 10.6424 27.0915 10.8884 27.0915C11.3345 27.0915 11.6941 26.9678 11.9677 26.721C12.2953 26.4203 12.4593 26.0823 12.4593 25.7077C12.4593 25.4519 12.3314 24.927 12.0768 24.1329L10.383 18.8591H11.8992ZM2.59555 16.4348L4.82211 23.2283H4.83586L7.07609 16.4348H8.90641C9.30719 19.8039 9.54391 22.8865 9.61656 25.6806H8.07344C8.01914 23.0686 7.86875 20.6125 7.62281 18.3118H7.60937L5.25953 25.6806H4.08437L1.74875 18.3118H1.735C1.56172 20.5214 1.45266 22.9775 1.40719 25.6806H0C0.0909375 22.3931 0.318516 19.3115 0.682734 16.4348H2.59555Z" fill="#00758F"/>
<path id="Vector_2" d="M27.5389 16.2977C29.934 16.2977 31.1316 17.8278 31.1316 20.8867C31.1316 22.5489 30.7714 23.8044 30.0518 24.6526C29.9221 24.8076 29.7788 24.9415 29.6278 25.0656L31.3228 25.9036L31.3211 25.9035L30.7193 26.9428L28.5121 25.6549C28.1462 25.7632 27.7436 25.8174 27.3049 25.8174C26.1289 25.8174 25.2505 25.4746 24.6697 24.79C24.0322 24.0327 23.7136 22.8404 23.7136 21.2153C23.7136 19.5625 24.0731 18.3117 24.793 17.4624C25.4486 16.6855 26.3641 16.2977 27.5389 16.2977ZM20.2046 16.3111C21.0606 16.3111 21.8389 16.5402 22.54 16.9967L22.1839 17.7902C21.584 17.5352 20.9925 17.4071 20.4092 17.4071C19.936 17.4071 19.5713 17.521 19.3171 17.7503C19.0614 17.9775 18.9033 18.2698 18.9033 18.6262C18.9033 19.1739 19.2935 19.6488 20.0138 20.05C20.2499 20.179 20.485 20.3095 20.7194 20.4415L20.7731 20.4717L20.8001 20.4869L20.8539 20.5171L20.8808 20.5323L20.9346 20.5626C21.4799 20.87 21.993 21.1635 21.993 21.1635C22.7133 21.6748 23.0724 22.22 23.0724 23.1178C23.0724 23.902 22.785 24.5457 22.2122 25.0493C21.639 25.5507 20.8689 25.8021 19.9046 25.8021C19.0026 25.8021 18.1285 25.5128 17.2817 24.9389L17.6778 24.1446C18.4065 24.5099 19.0659 24.6923 19.658 24.6923C20.2133 24.6923 20.648 24.5683 20.9624 24.3235C21.2763 24.0768 21.4643 23.7328 21.4643 23.2967C21.4643 22.7477 21.0824 22.2784 20.3819 21.8847C20.1626 21.7636 19.944 21.6413 19.726 21.5178L19.6724 21.4874C19.5738 21.4317 19.4745 21.3753 19.3772 21.32L19.3245 21.29C18.8514 21.021 18.4424 20.7859 18.4424 20.7859C17.7421 20.2736 17.391 19.724 17.391 18.8184C17.391 18.0694 17.6528 17.464 18.1758 17.0035C18.7 16.5419 19.3763 16.3111 20.2046 16.3111ZM33.9463 16.4349V24.5433H36.8556V25.6807H32.4709V16.4349H33.9463ZM38.4721 24.5468V24.739H38.1523V25.6796H37.9078V24.739H37.5755V24.5468H38.4722H38.4721ZM39.0628 24.5468L39.3699 25.319L39.652 24.5468H39.9986V25.6796H39.7681V24.8175L39.447 25.6796H39.2809L38.9592 24.8175H38.9469V25.6796H38.7288V24.5468H39.0628H39.0628ZM27.3883 17.4347C25.9769 17.4347 25.2708 18.5996 25.2708 20.9277C25.2708 22.2613 25.4579 23.2283 25.8314 23.831C26.1774 24.3889 26.7192 24.6672 27.4569 24.6672C28.8683 24.6672 29.5743 23.4933 29.5743 21.1466C29.5743 19.8317 29.3872 18.8729 29.0142 18.2699C28.6678 17.7133 28.1263 17.4347 27.3884 17.4347H27.3883Z" fill="#F29111"/>
<path id="Vector_3" d="M23.6889 1.44008C24.1571 0.289615 25.7942 1.16086 26.4295 1.56274C26.5852 1.66329 26.7638 1.87571 26.9424 1.95422C27.2209 1.96516 27.4992 1.98696 27.7781 1.9986C28.3014 2.12157 28.7916 2.22204 29.2039 2.45688C31.1202 3.5854 32.3676 4.7354 33.5156 6.63493C33.7609 7.03727 33.8835 7.47266 34.0839 7.90805C34.362 8.55704 34.6745 9.23829 34.9974 9.85196C35.1419 10.1429 35.2537 10.4664 35.4544 10.7121C35.5327 10.8245 35.7553 10.8576 35.8884 10.9247C36.2562 11.1151 36.7018 11.2596 37.0477 11.4831C37.6938 11.8859 38.3184 12.3659 38.8862 12.8573C39.0978 13.047 39.242 13.3155 39.4437 13.5161V13.6173C39.2647 13.6723 39.0863 13.7285 38.9078 13.7736C38.5179 13.8738 38.1725 13.8511 37.7942 13.9513C37.5605 14.0191 37.2702 14.1086 37.0251 14.1313L37.0477 14.1541C37.192 14.5663 37.9723 14.9014 38.3292 15.1479C38.7626 15.4607 39.1642 15.8401 39.4875 16.2758C39.5992 16.387 39.7108 16.4881 39.8219 16.599C39.8995 16.7113 39.9214 16.8566 40 16.9568V16.9907C39.913 16.96 39.8504 16.9014 39.7911 16.8402L39.7557 16.8032C39.7203 16.7665 39.6846 16.7304 39.6439 16.7006C39.398 16.5327 39.1538 16.3317 38.9078 16.1756C38.485 15.9073 37.9946 15.7516 37.5605 15.4823C37.315 15.3259 37.081 15.1479 36.847 14.969C36.6349 14.8122 36.4013 14.5111 36.2681 14.2877C36.1895 14.1642 36.1788 14.0191 36.0891 13.9298C36.1051 13.7807 36.2417 13.7364 36.3796 13.7L36.4113 13.6916C36.4589 13.6793 36.5055 13.667 36.5461 13.6506C37.1253 13.4047 37.8159 13.3155 38.7076 13.3378C38.674 13.1139 38.1168 12.8349 37.9389 12.7009C37.5819 12.4435 37.2038 12.175 36.8251 11.9408C36.6244 11.8181 36.2785 11.7286 36.0562 11.6284C35.7553 11.5054 35.0867 11.3825 34.9199 11.1483C34.6367 10.7791 34.4333 10.3387 34.2358 9.89383L34.182 9.77243C34.1641 9.73197 34.1461 9.69152 34.1281 9.6511C33.8947 9.11539 33.6047 8.55688 33.3707 8.00836C33.2484 7.74079 33.1922 7.50594 33.0582 7.2493C32.2452 5.67446 31.0418 4.35594 29.5828 3.42868C29.1034 3.12696 28.5688 2.84774 27.9786 2.65797C27.6442 2.55696 27.2427 2.61282 26.8864 2.53532H26.6519C26.4517 2.47891 26.2846 2.26672 26.1284 2.15485C25.7835 1.92063 25.4381 1.76336 25.0256 1.59626C24.881 1.52922 24.4683 1.37313 24.3242 1.49602C24.235 1.51844 24.1898 1.55211 24.1678 1.64165C24.0791 1.77524 24.1571 1.97649 24.2124 2.09969C24.3797 2.45672 24.6134 2.66891 24.8256 2.97063C25.0144 3.23821 25.2488 3.53993 25.3827 3.83086C25.6714 4.45626 25.8059 5.14915 26.0734 5.77446C26.1727 6.00961 26.3296 6.27719 26.4741 6.4893C26.5965 6.65766 26.8191 6.77938 26.8864 6.9925C27.0206 7.21594 26.6855 7.95321 26.6079 8.18735C26.3177 9.10352 26.3739 10.377 26.7081 11.1712L26.7259 11.2131L26.7438 11.2555C26.8658 11.5463 26.9964 11.8595 27.3209 11.9409C27.3432 11.9187 27.3209 11.9303 27.3652 11.9187C27.4437 11.304 27.4658 10.712 27.6777 10.2311C27.8001 9.9304 28.0445 9.71782 28.2121 9.47235C28.3238 9.53922 28.3238 9.74086 28.3904 9.8743C28.5354 10.2204 28.6911 10.5998 28.8699 10.947C29.2367 11.6618 29.6495 12.3548 30.1173 12.9802C30.2739 13.2035 30.4962 13.4494 30.6967 13.6506C30.7859 13.7284 30.8859 13.7734 30.9531 13.8737H30.9749V13.9074C30.6407 13.7842 30.4288 13.4384 30.1623 13.2366C29.6604 12.8571 29.0594 12.2873 28.7134 11.7405C28.5688 11.4266 28.4124 11.1257 28.2564 10.8134V10.7908C28.1898 10.88 28.2121 10.9686 28.1788 11.1036C28.0341 11.6618 28.1455 12.2986 27.6442 12.4994C27.0759 12.7345 26.652 12.1199 26.4741 11.8406C25.9056 10.9136 25.7499 9.34969 26.1508 8.08727C26.2399 7.80782 26.252 7.47266 26.4074 7.24954C26.3738 7.04782 26.2184 6.99266 26.1284 6.86907C25.9725 6.65782 25.839 6.41172 25.7169 6.17711C25.4824 5.71883 25.3155 5.17125 25.1374 4.67977C25.0592 4.47907 25.0367 4.27758 24.9587 4.08758C24.8256 3.79758 24.5802 3.50665 24.3909 3.25008C24.1345 2.88133 23.388 2.16665 23.6889 1.44008ZM27.343 3.62876C27.3727 3.6586 27.4087 3.68469 27.4459 3.7104L27.4907 3.74118C27.5505 3.78258 27.6084 3.82618 27.6438 3.88555C27.7001 3.96415 27.7106 4.04172 27.7779 4.12047C27.7779 4.38899 27.7001 4.5675 27.543 4.67875C27.543 4.67875 27.5323 4.69047 27.5213 4.70141C27.4322 4.52243 27.3542 4.34438 27.2645 4.16555C27.154 4.00946 26.9978 3.88563 26.9078 3.70727H26.8862V3.68485C27.0206 3.65165 27.154 3.62876 27.343 3.62876Z" fill="#00758F"/>
</g>
<defs>
<clipPath id="clip0_337_497">
<rect width="40" height="27.2656" fill="white" transform="translate(0 0.867188)"/>
</clipPath>
</defs>
</svg>
