<svg width="40" height="23" viewBox="0 0 40 23" fill="none" xmlns="http://www.w3.org/2000/svg">
<g id="logos:php" clip-path="url(#clip0_337_490)">
<path id="Vector" d="M20 21.9844C31.0457 21.9844 40 17.2764 40 11.4688C40 5.66113 31.0457 0.953125 20 0.953125C8.9543 0.953125 0 5.66113 0 11.4688C0 17.2764 8.9543 21.9844 20 21.9844Z" fill="url(#paint0_radial_337_490)"/>
<path id="Vector_2" d="M20 21.2031C30.6142 21.2031 39.2188 16.8449 39.2188 11.4688C39.2188 6.0926 30.6142 1.73438 20 1.73438C9.38578 1.73438 0.78125 6.0926 0.78125 11.4688C0.78125 16.8449 9.38578 21.2031 20 21.2031Z" fill="#6181B6"/>
<path id="Vector_3" d="M23.8906 14.625L24.8438 9.71875C25.0625 8.60938 24.875 7.78125 24.3125 7.26563C23.7656 6.76563 22.8281 6.51562 21.4531 6.51562H19.7969L20.2656 4.07812C20.2813 3.98437 20.2656 3.89062 20.2031 3.8125C20.1406 3.73437 20.0625 3.70312 19.9688 3.70312H17.6875C17.5313 3.70312 17.4063 3.8125 17.375 3.95313L16.3594 9.15625C16.2656 8.5625 16.0469 8.0625 15.6719 7.65625C15 6.89063 13.9531 6.5 12.5313 6.5H8.14065C7.9844 6.5 7.8594 6.60937 7.82815 6.75L5.78127 17.3125C5.76565 17.4062 5.78127 17.5 5.84377 17.5781C5.90627 17.6562 5.9844 17.6875 6.07815 17.6875H8.37502C8.53127 17.6875 8.65627 17.5781 8.68752 17.4375L9.18752 14.8906H10.8906C11.7813 14.8906 12.5469 14.7969 13.125 14.6094C13.7344 14.4063 14.2813 14.0781 14.7656 13.625C15.1563 13.2656 15.4844 12.8594 15.7344 12.4219L15.3281 14.5312C15.3125 14.625 15.3281 14.7188 15.3906 14.7969C15.4531 14.875 15.5313 14.9063 15.625 14.9063H17.9063C18.0625 14.9063 18.1875 14.7969 18.2188 14.6562L19.3438 8.875H20.9063C21.5781 8.875 21.7656 9 21.8281 9.0625C21.875 9.10938 21.9688 9.29688 21.8594 9.875L20.9531 14.5469C20.9375 14.6406 20.9531 14.7344 21.0156 14.8125C21.0781 14.8906 21.1563 14.9219 21.25 14.9219H23.5938C23.7344 14.875 23.8594 14.7656 23.8906 14.625ZM13.3281 10.5625C13.1875 11.2969 12.9219 11.8281 12.5313 12.125C12.1406 12.4219 11.5 12.5781 10.6563 12.5781H9.64065L10.375 8.79688H11.6875C12.6563 8.79688 13.0469 9 13.2031 9.17188C13.4063 9.42188 13.4531 9.90625 13.3281 10.5625ZM33.6406 7.65625C32.9688 6.89063 31.9219 6.5 30.5 6.5H26.0781C25.9219 6.5 25.7969 6.60937 25.7656 6.75L23.7188 17.2969C23.7031 17.3906 23.7188 17.4844 23.7813 17.5625C23.8438 17.6406 23.9219 17.6719 24.0156 17.6719H26.3125C26.4688 17.6719 26.5938 17.5625 26.625 17.4219L27.125 14.875H28.8281C29.7188 14.875 30.4844 14.7813 31.0625 14.5938C31.6719 14.3906 32.2188 14.0625 32.7031 13.6094C33.1094 13.2344 33.4531 12.8125 33.7031 12.3594C33.9531 11.9062 34.1406 11.4063 34.25 10.8594C34.5156 9.5 34.3125 8.4375 33.6406 7.65625ZM31.25 10.5625C31.1094 11.2969 30.8438 11.8281 30.4531 12.125C30.0625 12.4219 29.4219 12.5781 28.5781 12.5781H27.5625L28.2969 8.79688H29.6094C30.5781 8.79688 30.9688 9 31.125 9.17188C31.3438 9.42188 31.3906 9.90625 31.25 10.5625Z" fill="white"/>
<path id="Vector_4" d="M11.6875 8.48438C12.5625 8.48438 13.1406 8.64063 13.4375 8.96875C13.7344 9.29688 13.7969 9.84375 13.6406 10.625C13.4844 11.4375 13.1719 12.0313 12.7188 12.375C12.2656 12.7188 11.5781 12.8906 10.6562 12.8906H9.26562L10.125 8.48438H11.6875ZM6.09375 17.3594H8.39062L8.9375 14.5625H10.9063C11.7813 14.5625 12.4844 14.4688 13.0469 14.2813C13.6094 14.0938 14.1094 13.7969 14.5781 13.3594C14.9688 13 15.2812 12.6094 15.5156 12.1875C15.75 11.7656 15.9219 11.2969 16.0156 10.7813C16.2656 9.53125 16.0781 8.5625 15.4688 7.85938C14.8594 7.15625 13.8906 6.8125 12.5625 6.8125H8.14062L6.09375 17.3594ZM17.7031 4.01562H19.9844L19.4375 6.8125H21.4687C22.75 6.8125 23.625 7.03125 24.1094 7.48438C24.5938 7.9375 24.7344 8.65625 24.5469 9.65625L23.5938 14.5625H21.2812L22.1875 9.89063C22.2969 9.35938 22.25 9 22.0781 8.8125C21.9062 8.625 21.5156 8.51563 20.9375 8.51563H19.1094L17.9375 14.5625H15.6562L17.7031 4.01562ZM29.6094 8.48438C30.4844 8.48438 31.0625 8.64063 31.3594 8.96875C31.6562 9.29688 31.7188 9.84375 31.5625 10.625C31.4062 11.4375 31.0938 12.0313 30.6406 12.375C30.1875 12.7188 29.5 12.8906 28.5781 12.8906H27.1875L28.0469 8.48438H29.6094ZM24.0156 17.3594H26.3125L26.8594 14.5625H28.8281C29.7031 14.5625 30.4062 14.4688 30.9688 14.2813C31.5312 14.0938 32.0312 13.7969 32.5 13.3594C32.8906 13 33.2031 12.6094 33.4375 12.1875C33.6719 11.7656 33.8438 11.2969 33.9375 10.7813C34.1875 9.53125 34 8.5625 33.3906 7.85938C32.7812 7.15625 31.8125 6.8125 30.4844 6.8125H26.0625L24.0156 17.3594Z" fill="#000004"/>
</g>
<defs>
<radialGradient id="paint0_radial_337_490" cx="0" cy="0" r="1" gradientUnits="userSpaceOnUse" gradientTransform="translate(12.0081 4.65117) scale(26.2649 26.2649)">
<stop stop-color="white"/>
<stop offset="0.5" stop-color="#4C6B97"/>
<stop offset="1" stop-color="#231F20"/>
</radialGradient>
<clipPath id="clip0_337_490">
<rect width="40" height="21.0938" fill="white" transform="translate(0 0.953125)"/>
</clipPath>
</defs>
</svg>
